# AST/ASF file generated using VICON BodyLanguage
# -----------------------------------------------
:version 1.10
:name VICON
:units
  mass 1.0
  length 0.45
  angle deg
:documentation
   .ast/.asf automatically generated from VICON data using
   VICON BodyBuilder and BodyLanguage model FoxedUp or BRILLIANT.MOD
:root
   order TX TY TZ RX RY RZ
   axis XYZ
   position 0 0 0  
   orientation 0 0 0 
:bonedata
  begin
     id 1 
     name lhipjoint
     direction 0.573633 -0.743009 0.344793 
     length 2.46257 
     axis 0 0 0  XYZ
  end
  begin
     id 2 
     name lfemur
     direction 0.34202 -0.939693 0  
     length 7.3842  
     axis 0 0 20  XYZ
    dof rx ry rz
    limits (-160.0 20.0)
           (-70.0 70.0)
           (-60.0 70.0)
  end
  begin
     id 3 
     name ltibia
     direction 0.34202 -0.939693 0   
     length 7.50407   
     axis 0 0 20   XYZ
    dof rx
    limits (-10.0 170.0)
  end
  begin
     id 4 
     name lfoot
     direction 0.110749 -0.304281 0.946123   
     length 1.95925   
     axis -90 7.62852e-016 20   XYZ
    dof rx rz
    limits (-45.0 90.0)
           (-70.0 20.0)
  end
  begin
     id 5 
     name ltoes
     direction 1.53554e-011 -4.21843e-011 1   
     length 0.978318   
     axis -90 7.62852e-016 20   XYZ
    dof rx
    limits (-90.0 20.0)
  end
  begin
     id 6 
     name rhipjoint
     direction -0.488109 -0.791693 0.367385   
     length 2.31113  
     axis 0 0 0  XYZ 
  end
  begin
     id 7 
     name rfemur
     direction -0.34202 -0.939693 0   
     length 7.40965   
     axis 0 0 -20   XYZ
    dof rx ry rz
    limits (-160.0 20.0)
           (-70.0 70.0)
           (-70.0 60.0)
  end
  begin
     id 8 
     name rtibia
     direction -0.34202 -0.939693 0   
     length 7.55548   
     axis 0 0 -20   XYZ
    dof rx
    limits (-10.0 170.0)
 end
 begin
     id 9 
     name rfoot
     direction -0.127594 -0.350561 0.927808   
     length 2.07199  
     axis -90 -7.62852e-016 -20   XYZ
    dof rx rz
    limits (-45.0 90.0)
           (-20.0 70.0)
  end
  begin
     id 10 
     name rtoes
     direction -1.53542e-011 -4.21909e-011 1   
     length 1.02667   
     axis -90 -7.62852e-016 -20   XYZ
    dof rx
    limits (-90.0 20.0)
  end
  begin
     id 11 
     name lowerback
     direction -0.0103342 0.997298 -0.0727278   
     length 2.02836   
     axis 0 0 0   XYZ
    dof rx ry rz
    limits (-20.0 45.0)
           (-30.0 30.0)
           (-30.0 30.0)
  end
  begin
     id 12 
     name upperback
     direction 0.0171146 0.999786 -0.011606   
     length 2.03179   
     axis 0 0 0   XYZ
    dof rx ry rz
    limits (-20.0 45.0)
           (-30.0 30.0)
           (-30.0 30.0)
  end
  begin
     id 13 
     name thorax
     direction 0.0216927 0.999513 0.0224343   
     length 2.03882   
     axis 0 0 0   XYZ
    dof rx ry rz
    limits (-20.0 45.0)
           (-30.0 30.0)
           (-30.0 30.0)
  end
  begin
     id 14 
     name lowerneck
     direction 0.000989287 0.993907 0.110221   
     length 1.75428   
     axis 0 0 0   XYZ
    dof rx ry rz
    limits (-20.0 45.0)
           (-30.0 30.0)
           (-30.0 30.0)
  end
  begin
     id 15 
     name upperneck
     direction -0.0172474 0.994813 -0.100253   
     length 1.77058   
     axis 0 0 0   XYZ
    dof rx ry rz
    limits (-20.0 45.0)
           (-30.0 30.0)
           (-30.0 30.0)
  end
  begin
     id 16
     name head
     direction -0.00486455 0.99894 -0.0457663  
     length 1.77427  
     axis 0 0 0   XYZ
    dof rx ry rz
    limits (-20.0 45.0)
           (-30.0 30.0)
           (-30.0 30.0)
  end
  begin
     id 17 
     name lclavicle
     direction 0.927314 0.333734 -0.169441  
     length 3.97584  
     axis 0 0 0   XYZ
    dof ry rz
    limits (-20.0 10.0)
           (0.0 20.0)
  end
  begin
     id 18 
     name lhumerus
     direction 1 -4.48965e-011 -3.25313e-028   
     length 4.76468   
     axis 180 -30 -90   XYZ
    dof rx ry rz
    limits (-60.0 90.0)
           (-90.0 90.0)
           (-90.0 90.0)
  end
  begin
     id 19
     name lradius
     direction 1 -4.48969e-011 -2.8465e-028   
     length 3.52712   
     axis -180 -30 -90   XYZ
    dof rx
    limits (-10.0 170.0)
  end
  begin
     id 20
     name lwrist
     direction 1 -4.4896e-011 -7.78665e-028   
     length 1.76356   
     axis 1.91374e-015 90 90   XYZ
    dof ry
    limits (-180.0 0.0)
 end
  begin
     id 21 
     name lhand
     direction 1 -4.48959e-011 -1.55733e-027   
     length 0.859564   
     axis 9.9371e-016 90 90   XYZ
    dof rx rz
    limits (-90.0 90.0)
           (-45.0 45.0)
  end
  begin
     id 22 
     name lfingers
     direction 1 -4.48965e-011 -3.11466e-027   
     length 0.693002   
     axis 1.98742e-015 90 90   XYZ
    dof rx
    limits (0.0 90.0)
  end
  begin
     id 23
     name lthumb
     direction 0.707107 -6.34948e-011 0.707107   
     length 0.995017   
     axis -90 45 2.85299e-015   XYZ
    dof rx rz
    limits (-45.0 45.0)
           (-45.0 45.0)
  end
  begin
     id 24 
     name rclavicle
     direction -0.899388 0.348209 -0.264294   
     length 3.68366  
     axis 0 0 0   XYZ 
    dof ry rz
    limits (-10.0 20.0)
           (-20.0 0.0)
  end
  begin
     id 25 
     name rhumerus
     direction -1 -4.48965e-011 -3.01536e-027  
     length 4.90577   
     axis 180 30 90   XYZ
    dof rx ry rz
    limits (-90.0 60.0)
           (-90.0 90.0)
           (-90.0 90.0)
  end
  begin
     id 26 
     name rradius
     direction -1 -4.48966e-011 3.93291e-027   
     length 3.42692   
     axis -180 30 90   XYZ
    dof rx
    limits (-10.0 170.0)
  end
  begin
     id 27 
     name rwrist
     direction -1 -4.48969e-011 -7.78665e-028   
     length 1.71346   
     axis 1.91374e-015 -90 -90   XYZ
    dof ry
    limits (-180.0 0.0)
  end
  begin
     id 28
     name rhand
     direction -1 -4.48967e-011 -1.55733e-027   
     length 0.740957   
     axis 9.9371e-016 -90 -90   XYZ
    dof rx rz
    limits (-90.0 90.0)
           (-45.0 45.0)
  end
  begin
     id 29
     name rfingers
     direction -1 -4.48949e-011 -3.11466e-027   
     length 0.597378   
     axis 1.98742e-015 -90 -90   XYZ
    dof rx
    limits (0.0 90.0)
  end
  begin
     id 30
     name rthumb
     direction -0.707107 -6.34931e-011 0.707107   
     length 0.857719   
     axis -90 -45 -2.85299e-015   XYZ
    dof rx rz
    limits (-45.0 45.0)
           (-45.0 45.0)
  end
:hierarchy
  begin
    root lhipjoint rhipjoint lowerback
    lhipjoint lfemur
    lfemur ltibia
    ltibia lfoot
    lfoot ltoes
    rhipjoint rfemur
    rfemur rtibia
    rtibia rfoot
    rfoot rtoes
    lowerback upperback
    upperback thorax
    thorax lowerneck lclavicle rclavicle
    lowerneck upperneck
    upperneck head
    lclavicle lhumerus
    lhumerus lradius
    lradius lwrist
    lwrist lhand lthumb
    lhand lfingers
    rclavicle rhumerus
    rhumerus rradius
    rradius rwrist
    rwrist rhand rthumb
    rhand rfingers
  end

#!OML:ASF I:\AllaLogoMonkeySwing\Project 1\Capture day 1\Session 1\Subject1.ASF
:FULLY-SPECIFIED
:DEGREES
125
root -0.315114 17.5665 0.511678 -2.24446 -1.07834 -3.01251
lowerback 13.8607 1.73112 -1.39292
upperback 2.62716 2.20477 2.09714
thorax -5.12904 1.11877 2.59645
lowerneck -12.4981 0.863677 -2.0433
upperneck 20.3313 1.74046 -0.419367
head 8.3663 0.626173 0.389558
rclavicle 9.83984e-015 -1.94809e-014
rhumerus -32.0384 -3.12632 -75.9875
rradius 55.2178
rwrist -9.83434
rhand -11.2519 -37.114
rfingers 7.12502
rthumb 14.7778 -66.5671
lclavicle 9.83984e-015 -1.94809e-014
lhumerus -56.0212 13.2901 75.3715
lradius 52.6857
lwrist 7.43224
lhand -15.205 -18.5258
lfingers 7.12502
lthumb 10.967 11.1677
rfemur -16.7779 -5.94979 6.78824
rtibia 28.7248
rfoot 1.92614 4.19602
rtoes -3.56761
lfemur -17.1973 -3.68811 -2.04198
ltibia 29.0483
lfoot -3.08306 -6.28211
ltoes -48.9916
126
root -0.296694 17.0801 0.748808 -3.45745 -0.408974 -3.91963
lowerback 14.7702 1.57207 -0.559361
upperback 2.73042 2.14223 2.48751
thorax -5.49989 1.07823 2.53142
lowerneck -11.9576 0.745979 -2.13505
upperneck 19.6356 1.49687 -0.069003
head 8.03238 0.549042 0.48876
rclavicle 1.30701e-014 1.05356e-014
rhumerus -32.5064 -4.08063 -76.1039
rradius 54.6064
rwrist -10.194
rhand -12.2237 -37.5077
rfingers 7.12502
rthumb 13.8414 -67.0271
lclavicle 1.30701e-014 1.05356e-014
lhumerus -55.903 12.2594 75.9327
lradius 53.0143
lwrist 6.89483
lhand -14.678 -18.8381
lfingers 7.12502
lthumb 11.4753 10.8278
rfemur -16.0015 -7.71338 7.31317
rtibia 32.6894
rfoot -4.81692 -0.0449302
rtoes -18.9612
lfemur -16.9403 -0.905884 -1.55386
ltibia 33.2541
lfoot -11.2794 -3.56411
ltoes -50.4216
127
root -0.278935 16.6489 0.918894 -5.25138 0.542574 -4.2534
lowerback 16.9917 1.37059 -0.22923
upperback 2.80734 1.96203 2.66801
thorax -6.61708 0.988062 2.5393
lowerneck -11.3265 0.644218 -1.524
upperneck 19.0575 1.34185 -0.703539
head 7.73755 0.466805 0.156313
rclavicle -8.39865e-015 -2.0276e-014
rhumerus -33.0324 -4.95681 -76.4636
rradius 54.1581
rwrist -10.5727
rhand -13.3561 -37.782
rfingers 7.12502
rthumb 12.7499 -67.3728
lclavicle -8.39865e-015 -2.0276e-014
lhumerus -55.3508 11.7505 76.1681
lradius 52.6456
lwrist 5.77576
lhand -14.1084 -19.4543
lfingers 7.12502
lthumb 12.0246 10.1803
rfemur -15.4697 -8.57345 6.98048
rtibia 37.7928
rfoot -11.9123 0.468943
rtoes -19.9645
lfemur -17.1886 0.245794 -1.47691
ltibia 38.1722
lfoot -16.5633 -0.440842
ltoes -53.1545
128
root -0.318695 16.375 1.01993 -5.66243 1.90789 -1.92489
lowerback 18.7086 1.58321 -3.31598
upperback 2.63049 1.61571 2.31721
thorax -7.79753 0.911152 3.99294
lowerneck -11.8013 0.47968 -1.65375
upperneck 19.2266 1.15974 -0.727065
head 7.87956 0.365497 0.154278
rclavicle -1.83876e-015 -1.13307e-014
rhumerus -32.9185 -6.06025 -76.8162
rradius 53.7049
rwrist -10.7348
rhand -13.6733 -37.5726
rfingers 7.12502
rthumb 12.4441 -67.1821
lclavicle -1.83876e-015 -1.13307e-014
lhumerus -53.3844 12.2778 76.2467
lradius 51.0979
lwrist 4.0068
lhand -13.1496 -19.9319
lfingers 7.12502
lthumb 12.949 9.64633
rfemur -17.0132 -9.17815 3.95172
rtibia 42.579
rfoot -15.0368 -0.570267
rtoes -15.866
lfemur -19.603 -1.18649 -3.75899
ltibia 43.1054
lfoot -18.9631 -1.24519
ltoes -48.4083
129
root -0.42009 16.1434 1.17082 -4.6695 3.0911 -0.473934
lowerback 18.0554 1.91859 -5.82652
upperback 2.52695 1.57584 2.16286
thorax -7.61032 0.961356 5.2828
lowerneck -12.5766 0.196114 -2.4566
upperneck 19.6488 0.771442 0.188186
head 8.15485 0.207091 0.555022
rclavicle -6.75868e-015 -1.78906e-014
rhumerus -32.3564 -7.71572 -77.2268
rradius 51.9287
rwrist -10.7637
rhand -13.1414 -35.2531
rfingers 7.12502
rthumb 12.9569 -64.8308
lclavicle -6.75868e-015 -1.78906e-014
lhumerus -49.3192 14.1584 75.5966
lradius 46.9759
lwrist 0.629243
lhand -12.0868 -21.1509
lfingers 7.12502
lthumb 13.9734 8.35952
rfemur -19.2201 -8.17392 2.42556
rtibia 46.3903
rfoot -17.1854 -2.9029
rtoes -13.3251
lfemur -22.6808 -0.746779 -4.91065
ltibia 46.7906
lfoot -20.9718 -3.00932
ltoes -45.6123
130
root -0.442087 16.012 1.27351 -6.24838 4.60117 -4.60643
lowerback 19.9385 1.21665 -1.25255
upperback 3.03448 1.62579 3.22468
thorax -7.99722 0.868544 3.78883
lowerneck -12.2832 -0.139737 -2.21932
upperneck 18.7932 0.352762 -0.344274
head 7.82539 -0.0172892 0.292521
rclavicle 1.66979e-014 2.42517e-014
rhumerus -32.2113 -8.8456 -77.7562
rradius 49.9122
rwrist -11.0292
rhand -13.4074 -35.5216
rfingers 7.12502
rthumb 12.7005 -65.1154
lclavicle 1.66979e-014 2.42517e-014
lhumerus -46.8615 18.1235 74.389
lradius 44.2558
lwrist -3.00844
lhand -12.0985 -20.9388
lfingers 7.12502
lthumb 13.9621 8.57236
rfemur -17.9133 -7.64753 6.8148
rtibia 48.4997
rfoot -19.0087 -4.90336
rtoes -12.1237
lfemur -23.2374 -0.674378 -0.0202799
ltibia 49.2488
lfoot -22.9889 -5.61369
ltoes -43.3046
